Coordinates
version=1
nRows=6
nColumns=63
inDegrees=yes

Units are S.I. units (second, meters, Newtons, ...)
If the header above contains a line with 'inDegrees', this indicates whether rotational values are in degrees (yes) or radians (no).

endheader
time	pelvis_tilt	pelvis_list	pelvis_rotation	pelvis_tx	pelvis_ty	pelvis_tz	hip_flexion_r	hip_adduction_r	hip_rotation_r	knee_angle_r	knee_angle_r_beta	ankle_angle_r	subtalar_angle_r	mtp_angle_r	hip_flexion_l	hip_adduction_l	hip_rotation_l	knee_angle_l	knee_angle_l_beta	ankle_angle_l	subtalar_angle_l	mtp_angle_l	L5_S1_Flex_Ext	L5_S1_Lat_Bending	L5_S1_axial_rotation	L4_L5_Flex_Ext	L4_L5_Lat_Bending	L4_L5_axial_rotation	L3_L4_Flex_Ext	L3_L4_Lat_Bending	L3_L4_axial_rotation	L2_L3_Flex_Ext	L2_L3_Lat_Bending	L2_L3_axial_rotation	L1_L2_Flex_Ext	L1_L2_Lat_Bending	L1_L2_axial_rotation	L1_T12_Flex_Ext	L1_T12_Lat_Bending	L1_T12_axial_rotation	Abs_r3	Abs_r2	Abs_r1	Abs_t1	Abs_t2	neck_flexion	neck_bending	neck_rotation	arm_flex_r	arm_add_r	arm_rot_r	elbow_flex_r	pro_sup_r	wrist_flex_r	wrist_dev_r	arm_flex_l	arm_add_l	arm_rot_l	elbow_flex_l	pro_sup_l	wrist_flex_l	wrist_dev_l
7.067797	-1.959819	-4.901607	91.432812	0.195476	0.881944	0.644244	1.304068	-2.821134	-1.649538	6.324933	0.110391	30.255199	11.278758	0.000000	3.641871	1.877819	10.540252	8.359710	0.145904	25.087069	-3.343219	0.000000	-0.374973	-0.608804	1.640353	-0.696363	-0.809709	1.742875	-0.616044	-1.480246	1.742875	-0.428557	-1.480246	1.435309	-0.348200	-1.241473	1.332787	-0.214260	-0.943038	1.230265	-2.678397	-6.886914	9.123151	0.000000	0.000000	11.865581	31.297899	-6.181918	75.817819	-1.961628	22.119109	130.156723	89.285727	19.008530	33.907699	14.626380	-16.944008	98.713244	14.710007	7.833194	-9.010375	-9.116879
7.084746	-1.966041	-4.897085	91.436901	0.195452	0.881955	0.644243	1.302560	-2.820817	-1.546098	6.336934	0.110600	30.153206	11.147497	0.000000	3.611819	1.902429	10.804052	8.321855	0.145244	24.972859	-3.602540	0.000000	-0.374756	-0.609449	1.641400	-0.695960	-0.810567	1.743988	-0.615687	-1.481814	1.743988	-0.428309	-1.481814	1.436225	-0.347999	-1.242788	1.333638	-0.214136	-0.944036	1.231050	-2.676848	-6.894207	9.128975	0.000000	0.000000	11.796173	31.207520	-6.297977	75.836878	-1.955186	22.256345	130.278139	89.276762	18.915808	33.889054	14.648270	-16.930462	99.024748	14.648253	7.703913	-9.011202	-9.059336
7.101695	-1.985798	-4.898950	91.442385	0.195463	0.881968	0.644230	1.307769	-2.829608	-1.393156	6.356327	0.110939	30.031083	10.951879	0.000000	3.594192	1.931833	10.907452	8.306440	0.144975	24.903193	-3.657499	0.000000	-0.373486	-0.612058	1.637788	-0.693602	-0.814037	1.740149	-0.613601	-1.488157	1.740149	-0.426858	-1.488157	1.433064	-0.346819	-1.248108	1.330702	-0.213410	-0.948077	1.228341	-2.667776	-6.923717	9.108884	0.000000	0.000000	11.705330	31.103626	-6.382276	75.828415	-1.917739	22.394332	130.370884	89.257553	18.773373	33.866259	14.632608	-16.947367	99.156847	14.622936	7.741408	-9.048777	-8.999846
7.118644	-2.018342	-4.903000	91.454744	0.195470	0.881990	0.644224	1.319991	-2.861080	-1.407829	6.394897	0.111612	29.920251	10.977903	0.000000	3.580208	1.975803	10.975468	8.301610	0.144890	24.839967	-3.686669	0.000000	-0.372200	-0.616660	1.632209	-0.691213	-0.820158	1.734222	-0.611487	-1.499348	1.734222	-0.425387	-1.499348	1.428183	-0.345625	-1.257494	1.326170	-0.212675	-0.955207	1.224157	-2.658587	-6.975786	9.077858	0.000000	0.000000	11.626698	30.971232	-6.499332	75.792145	-1.888569	22.528775	130.436754	89.225473	18.494045	33.838599	14.632061	-16.962138	99.529916	14.577557	7.655656	-9.070808	-8.973507
7.135593	-2.059901	-4.907746	91.458138	0.195503	0.882011	0.644201	1.334246	-2.898051	-1.361082	6.437312	0.112352	29.793109	10.932936	0.000000	3.560644	2.029390	11.027902	8.294249	0.144762	24.781294	-3.741126	0.000000	-0.370592	-0.622770	1.625048	-0.688227	-0.828284	1.726614	-0.608846	-1.514203	1.726614	-0.423550	-1.514203	1.421917	-0.344132	-1.269952	1.320352	-0.211756	-0.964671	1.218786	-2.647102	-7.044897	9.038030	0.000000	0.000000	11.542608	30.840715	-6.586242	75.728248	-1.849290	22.631661	130.458977	89.181102	18.180274	33.809652	14.575750	-17.003237	99.497716	14.574889	7.860278	-9.138912	-8.914188
7.152542	-2.098599	-4.910402	91.462625	0.195542	0.882043	0.644169	1.348249	-2.932548	-1.346736	6.477188	0.113048	29.671354	10.916760	0.000000	3.537532	2.082563	11.076950	8.288653	0.144664	24.730597	-3.839205	0.000000	-0.369392	-0.629322	1.619287	-0.685998	-0.836998	1.720493	-0.606874	-1.530133	1.720493	-0.422178	-1.530133	1.416876	-0.343017	-1.283313	1.315671	-0.211070	-0.974819	1.214465	-2.638529	-7.119013	9.005990	0.000000	0.000000	11.488740	30.694402	-6.725870	75.632445	-1.828547	22.693058	130.455129	89.127891	17.791655	33.782371	14.529500	-17.036592	99.591934	14.550063	8.018453	-9.172142	-8.855883
